<?xml version="1.0" encoding="UTF-8"?>
<svg width="20px" height="19px" viewBox="0 0 25 24" version="1.1" xmlns="http://www.w3.org/2000/svg" xmlns:xlink="http://www.w3.org/1999/xlink">
    <!-- Generator: sketchtool 53 (72520) - https://sketchapp.com -->
    <title>A7606F5A-6743-4976-90DD-ADB682EB0AA7@3x</title>
    <desc>Created with sketchtool.</desc>
    <g id="Assets" stroke="none" stroke-width="1" fill="none" fill-rule="evenodd">
        <g transform="translate(-218.000000, -382.000000)" fill="#333333" id="bath">
            <g transform="translate(218.000000, 382.000000)">
                <g id="bathtub">
                    <g transform="translate(0.692308, 0.764706)">
                        <path d="M22.5076923,12.110311 L22.1128359,12.110311 L22.1128359,3.6330933 C22.1128359,1.61469237 20.5333642,0 18.5589898,0 C16.8112194,0 15.5541851,1.3248491 15.4135583,3.26604681 C14.4959904,3.44334933 13.8205282,4.25123953 13.8205282,5.24778567 C13.8205282,5.48999189 13.9784615,5.65144694 14.2153846,5.65144694 L17.3743744,5.65144694 C17.6112975,5.65144694 17.7692308,5.48999189 17.7692308,5.24778567 C17.7692308,4.26226181 17.1087151,3.46108904 16.2066953,3.27196004 C16.3246941,1.9892132 17.0783131,0.80732253 18.5589898,0.80732253 C20.0989898,0.80732253 21.3230769,2.05870557 21.3230769,3.633046 L21.3230769,12.1102637 L9.438747,12.1102637 C9.26012921,11.1792362 8.47263762,10.4955713 7.50259495,10.4955713 C7.10773858,10.0111589 6.55490264,9.6882015 5.9231232,9.6882015 C5.17288221,9.6882015 4.50158474,10.132262 4.18567187,10.7781295 C3.86975901,10.6166745 3.5143744,10.4955713 3.15898978,10.4955713 C2.18894712,10.4955713 1.40145553,11.1792362 1.22283774,12.1102637 L1.18461538,12.1102637 C0.513317909,12.1102637 0,12.6350281 0,13.3212948 C0,14.0075615 0.513317909,14.5323259 1.18461538,14.5323259 L1.65915565,14.5323259 L2.72461538,18.8516859 C3.04052825,20.103069 4.14615385,20.99119 5.40975901,20.99119 L5.72567187,20.99119 L5.21235397,22.040766 C5.09389243,22.2426203 5.17288221,22.4848265 5.37028726,22.5655304 C5.40975901,22.6058824 5.4887488,22.6058824 5.52822055,22.6058824 C5.68615385,22.6058824 5.80461538,22.5251312 5.88360517,22.4040281 L6.57461538,20.99119 L17.5323077,20.99119 L18.2036052,22.3636761 C18.282595,22.5251312 18.4010565,22.6058824 18.5589898,22.6058824 C18.6379796,22.6058824 18.6774513,22.6058824 18.7169231,22.5251312 C18.8748564,22.44438 18.9538462,22.2021738 18.8748564,22.0003668 L18.3802332,20.9890139 C19.602747,20.944641 20.65997,20.0717525 20.9676923,18.8920379 L22.043101,14.5323259 L22.5076923,14.5323259 C23.1789898,14.5323259 23.6923077,14.0075615 23.6923077,13.3212948 C23.6923077,12.6350754 23.1789898,12.110311 22.5076923,12.110311 Z M16.94,4.84412441 L14.6892308,4.84412441 C14.8471641,4.35971196 15.3210102,4.03675457 15.8343744,4.03675457 C16.3477386,4.03675457 16.7820667,4.35971196 16.94,4.84412441 Z M3.15898978,11.3029412 C3.5143744,11.3029412 3.83028726,11.4643962 4.10668209,11.7470017 C4.18567187,11.8681048 4.34360517,11.9084567 4.50153846,11.8681048 C4.65947175,11.8277529 4.73846154,11.7066497 4.77793329,11.5451474 C4.89639483,10.9396318 5.37024099,10.4955713 5.96254868,10.4955713 C6.39692308,10.4955713 6.79177945,10.6974256 6.98923077,11.1010869 C7.06822055,11.2625419 7.2656256,11.3432931 7.42360517,11.3029412 C7.46307692,11.3029412 7.50259495,11.3029412 7.54206671,11.3029412 C8.05538462,11.3029412 8.48975901,11.6258986 8.64769231,12.110311 L2.05331791,12.110311 C2.21129748,11.6258986 2.6456256,11.3029412 3.15898978,11.3029412 Z M20.2569231,18.649879 C20.02,19.5379527 19.230241,20.1838675 18.3220667,20.1838675 L5.44923077,20.1838675 C4.54101022,20.1838675 3.75129748,19.538 3.5143744,18.649879 L2.48769231,14.5323732 L21.2046154,14.5323732 L20.2569231,18.649879 Z M22.5076923,13.7250034 L21.7179333,13.7250034 L1.9743744,13.7250034 L1.18461538,13.7250034 C0.947692308,13.7250034 0.789759014,13.5635483 0.789759014,13.3213421 C0.789759014,13.0791359 0.947692308,12.9176808 1.18461538,12.9176808 L1.57947175,12.9176808 L9.08202043,12.9176808 L22.5076923,12.9176808 C22.7446154,12.9176808 22.9025487,13.0791359 22.9025487,13.3213421 C22.9025487,13.5635483 22.7446154,13.7250034 22.5076923,13.7250034 Z" id="Shape" fill-rule="nonzero"></path>
                        <path d="M14.5384615,7.53529412 C14.8615511,7.53529412 15.0769231,7.36307295 15.0769231,7.10471597 L15.0769231,6.88940167 C15.0769231,6.63104469 14.8615511,6.45882353 14.5384615,6.45882353 C14.215372,6.45882353 14,6.63104469 14,6.88940167 L14,7.10471597 C14,7.36307295 14.215372,7.53529412 14.5384615,7.53529412 Z" id="Path"></path>
                        <path d="M14.5384615,8.61176471 C14.8615511,8.61176471 15.0769231,8.43812467 15.0769231,8.26452532 L15.0769231,7.88253351 C15.0769231,7.67418173 14.8615511,7.53529412 14.5384615,7.53529412 C14.215372,7.53529412 14,7.67418173 14,7.88253351 L14,8.26452532 C14,8.4728364 14.215372,8.61176471 14.5384615,8.61176471 Z" id="Path"></path>
                        <path d="M14.5384615,10.7647059 C14.8615511,10.7647059 15.0769231,10.5924847 15.0769231,10.3341277 L15.0769231,10.1188134 C15.0769231,9.86045646 14.8615511,9.68823529 14.5384615,9.68823529 C14.215372,9.68823529 14,9.86045646 14,10.1188134 L14,10.3341277 C14,10.5924343 14.215372,10.7647059 14.5384615,10.7647059 Z" id="Path"></path>
                        <path d="M15.6153846,7.53529412 C15.9384742,7.53529412 16.1538462,7.36307295 16.1538462,7.10471597 L16.1538462,6.88940167 C16.1538462,6.63104469 15.9384742,6.45882353 15.6153846,6.45882353 C15.2922951,6.45882353 15.0769231,6.63104469 15.0769231,6.88940167 L15.0769231,7.10471597 C15.0769231,7.36307295 15.2922951,7.53529412 15.6153846,7.53529412 Z" id="Path"></path>
                        <path d="M15.0769231,8.26452532 C15.0769231,8.47287709 15.2922951,8.61176471 15.6153846,8.61176471 C15.9384742,8.61176471 16.1538462,8.43812467 16.1538462,8.26452532 L16.1538462,7.88253351 C16.1538462,7.67418173 15.9384742,7.53529412 15.6153846,7.53529412 C15.2922951,7.53529412 15.0769231,7.67418173 15.0769231,7.88253351 L15.0769231,8.26452532 Z" id="Path"></path>
                        <path d="M15.0769231,10.3341277 C15.0769231,10.5924847 15.2922951,10.7647059 15.6153846,10.7647059 C15.9384742,10.7647059 16.1538462,10.5924847 16.1538462,10.3341277 L16.1538462,10.1188134 C16.1538462,9.86045646 15.9384742,9.68823529 15.6153846,9.68823529 C15.2922951,9.68823529 15.0769231,9.86045646 15.0769231,10.1188134 L15.0769231,10.3341277 Z" id="Path"></path>
                        <path d="M17.7692308,7.53529412 C18.0923203,7.53529412 18.3076923,7.36307295 18.3076923,7.10471597 L18.3076923,6.88940167 C18.3076923,6.63104469 18.0923203,6.45882353 17.7692308,6.45882353 C17.4461412,6.45882353 17.2307692,6.63104469 17.2307692,6.88940167 L17.2307692,7.10471597 C17.2307061,7.36307295 17.4461412,7.53529412 17.7692308,7.53529412 Z" id="Path"></path>
                        <path d="M17.2307692,8.26452532 C17.2307692,8.47287709 17.4461286,8.61176471 17.7691992,8.61176471 C18.0922698,8.61176471 18.3076923,8.43816536 18.3076923,8.26452532 L18.3076923,7.88253351 C18.3076923,7.67418173 18.0923329,7.53529412 17.7692623,7.53529412 C17.4461917,7.53529412 17.2308323,7.67418173 17.2308323,7.88253351 L17.2308323,8.26452532 L17.2307692,8.26452532 Z" id="Path"></path>
                        <path d="M17.2307692,10.3341277 C17.2307692,10.5924847 17.4461412,10.7647059 17.7692308,10.7647059 C18.0923203,10.7647059 18.3076923,10.5924847 18.3076923,10.3341277 L18.3076923,10.1188134 C18.3076923,9.86045646 18.0923203,9.68823529 17.7692308,9.68823529 C17.4461412,9.68823529 17.2307692,9.86045646 17.2307692,10.1188134 L17.2307692,10.3341277 Z" id="Path"></path>
                    </g>
                </g>
            </g>
        </g>
    </g>
</svg>