<?xml version="1.0" encoding="UTF-8"?>
<svg width="20px" height="20px" viewBox="0 0 25 23" version="1.1" xmlns="http://www.w3.org/2000/svg" xmlns:xlink="http://www.w3.org/1999/xlink">
    <!-- Generator: sketchtool 53 (72520) - https://sketchapp.com -->
    <title>80F64429-64A8-4B5C-8018-D703145A613C@3x</title>
    <desc>Created with sketchtool.</desc>
    <g id="Assets" stroke="none" stroke-width="1" fill="none" fill-rule="evenodd">
        <g transform="translate(-110.000000, -383.000000)" fill="#333333" fill-rule="nonzero" id="bed">
            <g transform="translate(110.000000, 383.000000)">
                <g id="Shape">
                    <g transform="translate(0.692308, 0.764706)">
                        <path d="M23.6076989,14.9563984 C23.644138,14.8588991 23.6569771,14.7515668 23.6234476,14.6432189 L21.6755981,8.3155989 L21.6755981,2.4775065 C21.6755981,1.12041073 20.5711117,0.0154189198 19.2124756,0.0154189198 L4.43364822,0.0154189198 C3.07496596,0.0154189198 1.97052572,1.12041073 1.97052572,2.4775065 L1.97052572,8.31564506 L0.0226762633,14.6432189 C-0.0108070175,14.7505512 0.00198590493,14.8579297 0.0384249513,14.9563984 C0.0147788274,15.0608224 0,15.1681547 0,15.2804266 L0,19.2197759 L0,21.1894737 C0,21.4612899 0.220712551,21.6819097 0.492642975,21.6819097 L2.46316869,21.6819097 C2.73505293,21.6819097 2.95576548,21.4612899 2.95576548,21.1894737 L2.95576548,19.7122119 L20.6903584,19.7122119 L20.6903584,21.1894737 C20.6903584,21.4612899 20.9110709,21.6819097 21.1830013,21.6819097 L23.1535271,21.6819097 C23.4254575,21.6819097 23.64617,21.4612899 23.64617,21.1894737 L23.64617,19.2197759 L23.64617,15.2804266 C23.6461239,15.1681547 23.631345,15.0608224 23.6076989,14.9563984 Z M2.95576548,2.4775065 C2.95576548,1.66302745 3.61882681,1.00024472 4.43364822,1.00024472 L19.2124756,1.00024472 C20.027297,1.00024472 20.6903584,1.66302745 20.6903584,2.4775065 L20.6903584,7.89411765 L19.3513966,7.89411765 L18.8922831,6.05838906 C18.7267602,5.39953031 18.136577,4.93959408 17.4577208,4.93959408 L14.2861844,4.93959408 C13.471363,4.93959408 12.8083017,5.60237681 12.8083017,6.41685587 L12.8083017,7.89411765 L10.837776,7.89411765 L10.837776,6.41782532 C10.837776,5.60334627 10.1747146,4.94056354 9.35989324,4.94056354 L6.18835688,4.94056354 C5.50950067,4.94056354 4.91936362,5.40146921 4.75384076,6.05935851 L4.29472725,7.89411765 L2.95576548,7.89411765 L2.95576548,2.4775065 Z M18.339555,8.68985394 C18.2449705,8.81001995 18.1030937,8.87894345 17.9503638,8.87894345 L14.2861844,8.87894345 C14.0152239,8.87894345 13.7935415,8.65832363 13.7935415,8.38650746 L13.7935415,6.41685587 C13.7935415,6.1450397 14.0152239,5.92441988 14.2861844,5.92441988 L17.4586907,5.92441988 C17.6853147,5.92441988 17.8813651,6.07708566 17.9365548,6.29668985 L18.4291978,8.26638762 C18.4666529,8.41508325 18.4341395,8.56871847 18.339555,8.68985394 Z M9.85355226,6.41685587 L9.85355226,8.38161404 C9.85355226,8.38359911 9.8525824,8.38456856 9.8525824,8.38655363 C9.8525824,8.38752308 9.8525824,8.3885387 9.8525824,8.3885387 C9.85161254,8.65938541 9.63089999,8.87898961 9.36095547,8.87898961 L5.69677613,8.87898961 C5.54307632,8.87898961 5.40216944,8.81006612 5.30758495,8.6899001 C5.21300045,8.56876464 5.18048703,8.41415996 5.21794212,8.26643378 L5.7105851,6.29673602 C5.76577478,6.07810127 5.96182516,5.92446605 6.1894191,5.92446605 L9.36095547,5.92446605 C9.63186985,5.92441988 9.85355226,6.1450397 9.85355226,6.41685587 Z M2.82668166,8.87894345 L4.30950607,8.87894345 C4.36173999,9.02666963 4.4297226,9.16848676 4.52920258,9.29650072 C4.81295607,9.6569526 5.23761643,9.86376925 5.69576008,9.86376925 L9.35993942,9.86376925 C10.0013405,9.86376925 10.5432155,9.45013595 10.7471633,8.87894345 L12.8989606,8.87894345 C13.1029084,9.45115157 13.6447833,9.86376925 14.2861844,9.86376925 L17.9503638,9.86376925 C18.4085074,9.86376925 18.8321517,9.6569526 19.1159052,9.29650072 C19.2154314,9.16945621 19.283414,9.02666963 19.3356017,8.87894345 L20.819396,8.87894345 L22.3406454,13.8208919 C22.283516,13.8140134 22.2273564,13.8031648 22.1682411,13.8031648 L1.47788274,13.8031648 C1.41876743,13.8031648 1.36260789,13.8140134 1.30644834,13.8208919 L2.82668166,8.87894345 Z M1.97052572,20.6970377 L0.985239766,20.6970377 L0.985239766,19.7122119 L1.97047953,19.7122119 L1.97047953,20.6970377 L1.97052572,20.6970377 Z M22.6608841,20.6970377 L21.6756443,20.6970377 L21.6756443,19.7122119 L22.6608841,19.7122119 L22.6608841,20.6970377 L22.6608841,20.6970377 Z M22.6608841,18.7273861 L0.985239766,18.7273861 L0.985239766,15.2804266 C0.985239766,15.0086104 1.20692218,14.7879906 1.47788274,14.7879906 L22.1682411,14.7879906 C22.4392017,14.7879906 22.6608841,15.0086104 22.6608841,15.2804266 L22.6608841,18.7273861 Z"></path>
                    </g>
                </g>
            </g>
        </g>
    </g>
</svg>