<?xml version="1.0" encoding="UTF-8"?>
<svg width="20px" height="20px" viewBox="0 0 25 25" version="1.1" xmlns="http://www.w3.org/2000/svg" xmlns:xlink="http://www.w3.org/1999/xlink">
    <!-- Generator: sketchtool 53 (72520) - https://sketchapp.com -->
    <title>CA2CB913-6D7D-4395-A9C6-5593A3DF1B79@3x</title>
    <desc>Created with sketchtool.</desc>
    <g id="Assets" stroke="none" stroke-width="1" fill="none" fill-rule="evenodd">
        <g transform="translate(-338.000000, -381.000000)" fill="#333333" fill-rule="nonzero" id="sqft">
            <g transform="translate(338.000000, 381.000000)">
                <g id="hous">
                    <g id="house-plan-scale-copy-6" transform="translate(0.692308, 0.688235)">
                        <path d="M22.7401928,23.5667831 C22.6391056,23.5667831 22.5380185,23.5282598 22.4609395,23.4512132 C22.3066236,23.2969621 22.3066236,23.0471922 22.4609395,22.8930991 L22.6357887,22.7183233 L4.60152,22.7183233 L4.77636923,22.8929412 C4.93068513,23.0471922 4.93068513,23.2969621 4.77636923,23.4510553 C4.62221128,23.6053064 4.37202051,23.6053064 4.21802051,23.4510553 L3.37883897,22.6122264 C3.30049641,22.5339167 3.26195692,22.4309774 3.26322051,22.328196 C3.26322051,22.3266172 3.26322051,22.3248805 3.26322051,22.3233016 C3.26322051,22.1875228 3.33177026,22.067848 3.43617436,21.9968009 L4.2377641,21.1957059 C4.39192205,21.0414548 4.64211282,21.0414548 4.79611282,21.1957059 C4.95042872,21.3499569 4.95042872,21.5997268 4.79611282,21.75382 L4.62126359,21.9285958 L22.6556903,21.9285958 L22.480841,21.75382 C22.3265251,21.5995689 22.3265251,21.3497991 22.480841,21.1957059 C22.634999,21.0414548 22.8851897,21.0414548 23.0391897,21.1957059 L23.8783713,22.0345348 C23.9568718,22.1128445 23.9952533,22.2157838 23.9939897,22.3185652 C23.9939897,22.3203019 23.9939897,22.3218807 23.9939897,22.3234595 C23.9939897,22.4592384 23.92544,22.5789132 23.8210359,22.6499602 L23.0194462,23.4510553 C22.9423672,23.5282598 22.84128,23.5667831 22.7401928,23.5667831 Z M1.24384615,20.8235772 C1.10801026,20.8235772 0.988127179,20.7548984 0.917208205,20.6505381 L0.11577641,19.8494431 C-0.0385394872,19.695192 -0.0385394872,19.4454221 0.11577641,19.2913289 C0.269934359,19.1370779 0.520125128,19.1370779 0.674125128,19.2913289 L0.848974359,19.4661047 L0.848974359,1.43909765 L0.674125128,1.61387341 C0.519967179,1.76812447 0.26977641,1.76812447 0.11577641,1.61387341 C-0.0385394872,1.45962235 -0.0385394872,1.20985247 0.11577641,1.05575929 L0.954957949,0.216930353 C1.03330051,0.138620706 1.13565128,0.0986764706 1.23894974,0.101360471 C1.37889231,0.104676 1.49877538,0.168618353 1.57064205,0.274399529 L2.37207385,1.07549459 C2.52638974,1.22974565 2.52638974,1.47951553 2.37207385,1.63360871 C2.2179159,1.78785976 1.96772513,1.78785976 1.81372513,1.63360871 L1.6388759,1.45883294 L1.6388759,19.48584 L1.81372513,19.3110642 C1.96788308,19.1568132 2.21807385,19.1568132 2.37207385,19.3110642 C2.52638974,19.4653153 2.52638974,19.7150852 2.37207385,19.8691784 L1.53289231,20.7080073 C1.45454974,20.7863169 1.35061949,20.8257875 1.24890051,20.8235772 C1.24716308,20.8235772 1.24558359,20.8235772 1.24384615,20.8235772 Z M23.5991179,19.7068753 L4.51685949,19.7068753 C4.29873231,19.7068753 4.12198769,19.5302049 4.12198769,19.3121694 L4.12198769,0.496224235 C4.12198769,0.278188706 4.29873231,0.101518353 4.51685949,0.101518353 L15.9198092,0.101518353 C16.1379364,0.101518353 16.314681,0.278188706 16.314681,0.496224235 L16.314681,8.15714965 L23.59896,8.15714965 C23.8170872,8.15714965 23.9938318,8.33382 23.9938318,8.55185553 L23.9938318,19.3120115 C23.9939897,19.5300471 23.8172451,19.7068753 23.5991179,19.7068753 Z M16.2977805,18.9174635 L23.2042462,18.9174635 L23.2042462,8.94656141 L16.2977805,8.94656141 L16.2977805,18.9174635 Z M8.73330051,18.9174635 L15.5081949,18.9174635 L15.5081949,13.6302993 L8.73330051,13.6302993 L8.73330051,18.9174635 Z M4.91173128,18.9174635 L7.94339897,18.9174635 L7.94339897,13.6302993 L4.91173128,13.6302993 L4.91173128,18.9174635 Z M8.33842872,12.8408875 L15.5081949,12.8408875 L15.5081949,8.55185553 C15.5081949,8.51191129 15.5141969,8.473388 15.5250954,8.43691718 L15.5250954,4.31524047 L4.91173128,4.31524047 L4.91173128,12.8408875 L8.33842872,12.8408875 Z M10.6048349,3.52582871 L15.5250954,3.52582871 L15.5250954,0.890930118 L10.6048349,0.890930118 L10.6048349,3.52582871 Z M4.91173128,3.52582871 L9.81493333,3.52582871 L9.81493333,0.890930118 L4.91173128,0.890930118 L4.91173128,3.52582871 Z" id="Shape"></path>
                    </g>
                </g>
            </g>
        </g>
    </g>
</svg>