<?xml version="1.0" encoding="utf-8"?>
<!-- Generator: Adobe Illustrator 23.0.2, SVG Export Plug-In . SVG Version: 6.00 Build 0)  -->
<svg version="1.1" id="Layer_1" xmlns="http://www.w3.org/2000/svg" xmlns:xlink="http://www.w3.org/1999/xlink" x="0px" y="0px"
	 viewBox="0 0 1000 220" style="enable-background:new 0 0 1000 220;" xml:space="preserve">
<style type="text/css">
	.st0{fill:#FFFFFF;}
	.st1{fill:#38A6FA;}
</style>
<path class="st0" d="M671.95,134.18c0,20.63-10.62,32.06-33.72,32.06c-23.09,0-33.71-11.21-33.71-32.06V85.82
	c0-20.85,10.62-32.06,33.71-32.06c23.1,0,33.72,11.44,33.72,32.06V134.18z M576.26,133.95c0,36.55,20.94,58.52,61.97,58.52
	c40.58,0,61.75-21.97,61.75-58.52v-47.9c0-36.55-21.16-58.52-61.75-58.52c-41.03,0-61.97,21.97-61.97,58.52V133.95z"/>
<path class="st0" d="M366.88,82.49c0,16.14-9.64,25.56-26.01,25.56h-36.33V56.7h36.33C357.24,56.7,366.88,66.34,366.88,82.49
	 M396.48,82.49c0-32.29-20.4-52.02-52.92-52.02h-59.12c-4.5,0-8.15,3.65-8.15,8.15v142.9c0,4.5,3.65,8.15,8.15,8.15h0.01h11.93h0.01
	c4.5,0,8.15-3.65,8.15-8.15v-37v-10.23h39.02C376.07,134.28,396.48,114.78,396.48,82.49"/>
<path class="st0" d="M820.32,82.49c0,16.14-9.64,25.56-26.01,25.56h-36.32V56.7h36.32C810.68,56.7,820.32,66.34,820.32,82.49
	 M849.92,82.49c0-32.29-20.4-52.02-52.92-52.02h-59.12c-4.5,0-8.15,3.65-8.15,8.15v142.9c0,4.5,3.65,8.15,8.15,8.15h0.01h11.93h0.01
	c4.5,0,8.15-3.65,8.15-8.15v-47.23H797C829.51,134.28,849.92,114.78,849.92,82.49"/>
<path class="st0" d="M516.96,82.41c0,16.14-9.64,25.56-26.01,25.56h-36.32V56.62h36.32C507.32,56.62,516.96,66.26,516.96,82.41
	 M546.56,82.41c0-32.29-20.4-52.02-52.92-52.02h-59.12c-4.5,0-8.15,3.65-8.15,8.15v142.9c0,4.5,3.65,8.15,8.15,8.15h0.01h11.93h0.01
	c4.5,0,8.15-3.65,8.15-8.15v-37V134.2h30.25l27.43,47.74c3.36,6.28,7.25,7.7,16.89,7.7h11.98c5.38,0,6.72-3.37,4.04-7.62
	l-30.48-51.06C534.73,124.16,546.56,106.99,546.56,82.41"/>
<path class="st0" d="M993.81,30.32h-10.64c-9.64,0-13.52,1.43-16.89,7.7l-33.81,58.84l-33.81-58.84c-3.36-6.28-7.25-7.7-16.89-7.7
	h-10.64c-9.7,0-5.1,8.07-5.1,8.07c0,0,52.31,87.65,52.31,87.65h0v55.48c0,4.5,3.65,8.15,8.15,8.15h0.01h11.93h0.01
	c4.5,0,8.15-3.65,8.15-8.15v-55.48h0c0,0,52.31-87.64,52.31-87.65C998.91,38.39,1003.51,30.32,993.81,30.32"/>
<path class="st1" d="M188.2,181.81c-0.15,4.28-3.69,7.71-8.03,7.71l-117.19-0.01c-0.02,0-0.09,0-0.19-0.01h-0.04h-0.04
	c-0.15,0.01-0.29,0.01-0.43,0.01c-4.42,0-8.01-3.59-8.01-8.02c0-0.02,0-0.04,0-0.06v-0.02v-0.02c0-0.02,0-0.04,0-0.05v-2.67
	c0.02-0.29,0.37-5.56,3.93-12.08c5.76-10.55,16.47-18.48,31.82-23.57l47.15-15.63c1.05-0.35,10.52-3.63,19.95-11.73
	c12.94-11.1,19.88-25.91,20.12-42.87l3.34,2.2c7.49,4.93,7.63,13.79,7.63,14.16V181.81z M148.1,71.88c0,8.56-3.06,15.48-9.37,21.15
	c-5,4.5-10.2,6.51-10.84,6.74l-47.04,15.6c-28.13,9.33-41.75,25.41-48.22,37.26c-1.21,2.22-2.3,4.52-3.24,6.85
	c-0.09,0.22-0.17,0.44-0.26,0.66V89.15c0-8.55,6.68-13.5,7.56-14.11l0.07-0.02l0.08-0.08l64.28-42.29c7.4-4.87,15.03-0.05,15.11,0
	l31.88,20.98V71.88z M217.33,180.3V89.15c0-4.15-1-25.5-20.75-38.5l-19.22-12.64V9.5c0-4.5-3.65-8.15-8.15-8.15h-0.01h-12.6h-0.01
	c-4.5,0-8.15,3.65-8.15,8.15v9.48L132.24,8.31c-11.73-7.72-30.85-10.71-47.13,0L20.75,50.65l-0.07,0.05C17.06,53.1,0,65.66,0,89.15
	v91.15c0,8.72,2.02,16.17,6,22.15c3.19,4.79,7.64,8.63,13.22,11.42c9.44,4.72,18.74,4.78,19.12,4.78h140.65
	c0.39,0,9.68-0.05,19.13-4.78c5.58-2.79,10.02-6.63,13.22-11.42C215.31,196.48,217.33,189.03,217.33,180.3"/>
</svg>
