<?xml version="1.0" encoding="UTF-8"?><svg id="Layer_1" xmlns="http://www.w3.org/2000/svg" width="1000" height="217.3" viewBox="0 0 1000 217.3"><defs><style>.cls-1{fill:#38a6fa;}</style></defs><path d="M671.95,132.83c0,20.63-10.62,32.06-33.72,32.06s-33.71-11.21-33.71-32.06v-48.36c0-20.85,10.62-32.06,33.71-32.06s33.72,11.44,33.72,32.06v48.36h0Zm-95.69-.23c0,36.55,20.94,58.52,61.97,58.52s61.75-21.97,61.75-58.52v-47.9c0-36.55-21.16-58.52-61.75-58.52s-61.97,21.97-61.97,58.52v47.9Z"/><path d="M366.88,81.14c0,16.14-9.64,25.56-26.01,25.56h-36.33V55.35h36.33c16.37,0,26.01,9.64,26.01,25.79m29.6,0c0-32.29-20.4-52.02-52.92-52.02h-59.12c-4.5,0-8.15,3.65-8.15,8.15V180.17c0,4.5,3.65,8.15,8.15,8.15h11.95c4.5,0,8.15-3.65,8.15-8.15v-47.23h39.02c32.51,0,52.92-19.51,52.92-51.8"/><path d="M820.32,81.14c0,16.14-9.64,25.56-26.01,25.56h-36.32V55.35h36.32c16.37,0,26.01,9.64,26.01,25.79m29.6,0c0-32.29-20.4-52.02-52.92-52.02h-59.12c-4.5,0-8.15,3.65-8.15,8.15V180.17c0,4.5,3.65,8.15,8.15,8.15h11.95c4.5,0,8.15-3.65,8.15-8.15v-47.23h39.02c32.51,0,52.92-19.51,52.92-51.8"/><path d="M516.96,81.06c0,16.14-9.64,25.56-26.01,25.56h-36.32V55.27h36.32c16.37,0,26.01,9.64,26.01,25.79m29.6,0c0-32.29-20.4-52.02-52.92-52.02h-59.12c-4.5,0-8.15,3.65-8.15,8.15V180.09c0,4.5,3.65,8.15,8.15,8.15h11.95c4.5,0,8.15-3.65,8.15-8.15v-47.24h30.25l27.43,47.74c3.36,6.28,7.25,7.7,16.89,7.7h11.98c5.38,0,6.72-3.37,4.04-7.62l-30.48-51.06c20-6.8,31.83-23.97,31.83-48.55"/><path d="M993.81,28.97h-10.64c-9.64,0-13.52,1.43-16.89,7.7l-33.81,58.84-33.81-58.84c-3.36-6.28-7.25-7.7-16.89-7.7h-10.64c-9.7,0-5.1,8.07-5.1,8.07l52.31,87.65h0v55.48c0,4.5,3.65,8.15,8.15,8.15h11.95c4.5,0,8.15-3.65,8.15-8.15v-55.48h0s52.31-87.64,52.31-87.65c0,0,4.61-8.07-5.09-8.07"/><path class="cls-1" d="M188.2,180.46c-.15,4.28-3.69,7.71-8.03,7.71H62.98s-.09,0-.19-.02h-.08c-.15,0-.29,0-.43,0-4.42,0-8.01-3.59-8.01-8.02v-2.82c.02-.29,.37-5.56,3.93-12.08,5.76-10.55,16.47-18.48,31.82-23.57l47.15-15.63c1.05-.35,10.52-3.63,19.95-11.73,12.94-11.1,19.88-25.91,20.12-42.87l3.34,2.2c7.49,4.93,7.63,13.79,7.63,14.16v92.66h0Zm-40.1-109.93c0,8.56-3.06,15.48-9.37,21.15-5,4.5-10.2,6.51-10.84,6.74l-47.04,15.6c-28.13,9.33-41.75,25.41-48.22,37.26-1.21,2.22-2.3,4.52-3.24,6.85-.09,.22-.17,.44-.26,.66V87.8c0-8.55,6.68-13.5,7.56-14.11l.07-.02,.08-.08L101.12,31.3c7.4-4.87,15.03-.05,15.11,0l31.88,20.98v18.25h-.01Zm69.23,108.42V87.8c0-4.15-1-25.5-20.75-38.5l-19.22-12.64V8.15c0-4.5-3.65-8.15-8.15-8.15h-12.62c-4.5,0-8.15,3.65-8.15,8.15v9.48l-16.2-10.67c-11.73-7.72-30.85-10.71-47.13,0L20.75,49.3l-.07,.05c-3.62,2.4-20.68,14.96-20.68,38.45v91.15c0,8.72,2.02,16.17,6,22.15,3.19,4.79,7.64,8.63,13.22,11.42,9.44,4.72,18.74,4.78,19.12,4.78H178.99c.39,0,9.68-.05,19.13-4.78,5.58-2.79,10.02-6.63,13.22-11.42,3.97-5.97,5.99-13.42,5.99-22.15"/></svg>