<svg width="108" height="107" viewBox="0 0 108 107" fill="none" xmlns="http://www.w3.org/2000/svg">
  <path fill-rule="evenodd" clip-rule="evenodd" d="M46.2962 1.97438C46.5572 3.30012 45.6941 4.58645 44.3684 4.84748C32.747 7.13566 22.5977 13.5358 15.4985 22.471C14.658 23.5289 13.1189 23.7052 12.061 22.8646C11.0031 22.0241 10.8269 20.4851 11.6674 19.4271C19.4677 9.6095 30.6279 2.56585 43.4231 0.0465512C44.7488 -0.214479 46.0352 0.64864 46.2962 1.97438ZM54 15.5666C33.0801 15.5666 16.1212 32.5255 16.1212 53.4454C16.1212 74.3652 33.0801 91.3241 54 91.3241C74.9199 91.3241 91.8788 74.3652 91.8788 53.4454C91.8788 32.5255 74.9199 15.5666 54 15.5666ZM11.2281 53.4454C11.2281 51.3051 11.3853 49.2015 11.6888 47.1455H2.94655C1.59536 47.1455 0.5 46.0502 0.5 44.699C0.5 43.3478 1.59536 42.2524 2.94655 42.2524H12.7076C17.6274 24.0588 34.2505 10.6735 54 10.6735C73.7495 10.6735 90.3727 24.0588 95.2924 42.2524H105.053C106.405 42.2524 107.5 43.3478 107.5 44.699C107.5 46.0502 106.405 47.1455 105.053 47.1455H96.3111C96.6146 49.2015 96.7719 51.3051 96.7719 53.4454C96.7719 55.5857 96.6146 57.6893 96.3111 59.7453H105.053C106.405 59.7453 107.5 60.8407 107.5 62.1919C107.5 63.5431 106.405 64.6384 105.053 64.6384H95.2924C90.3726 82.832 73.7495 96.2172 54 96.2172C34.2505 96.2172 17.6274 82.832 12.7076 64.6384H2.94655C1.59536 64.6384 0.5 63.5431 0.5 62.1919C0.5 60.8407 1.59536 59.7453 2.94655 59.7453H11.6889C11.3854 57.6893 11.2281 55.5857 11.2281 53.4454ZM8.81557 72.2606C8.2825 71.019 6.84385 70.4446 5.60225 70.9777C4.36066 71.5107 3.78628 72.9494 4.31935 74.191C6.36379 78.9528 9.07382 83.36 12.3267 87.298C13.1872 88.3397 14.7293 88.4867 15.771 87.6262C16.8128 86.7656 16.9597 85.2236 16.0992 84.1818C13.1378 80.5967 10.6734 76.5877 8.81557 72.2606ZM29.6059 98.4217C30.1855 97.2011 31.6448 96.6816 32.8654 97.2612C39.243 100.29 46.3778 101.991 53.9144 101.991C56.5267 101.991 59.0855 101.787 61.586 101.397C62.921 101.188 64.1723 102.101 64.3808 103.436C64.5893 104.771 63.6761 106.023 62.3411 106.231C59.5937 106.66 56.7824 106.884 53.9144 106.884C45.634 106.884 37.7836 105.014 30.7664 101.681C29.5458 101.102 29.0262 99.6423 29.6059 98.4217ZM103.69 73.7472C104.211 72.5005 103.623 71.0675 102.376 70.5464C101.129 70.0254 99.6963 70.6137 99.1752 71.8604C96.6243 77.964 92.8727 83.4463 88.2113 88.0027C87.2451 88.9472 87.2275 90.4962 88.172 91.4625C89.1165 92.4287 90.6655 92.4463 91.6317 91.5018C96.7566 86.4923 100.883 80.4635 103.69 73.7472ZM79.801 5.63537C78.6163 4.98562 77.1292 5.41929 76.4794 6.604C75.8297 7.78872 76.2634 9.27585 77.4481 9.9256C80.6338 11.6728 83.6056 13.7644 86.3164 16.1486C88.7925 18.3335 91.0473 20.7631 93.046 23.4024C93.8539 24.4738 94.6225 25.5749 95.3356 26.6996C96.3154 28.2452 97.2128 29.8479 98.0164 31.4957C98.6086 32.7101 100.073 33.2146 101.288 32.6224C102.502 32.0301 103.007 30.5655 102.414 29.351C101.53 27.537 100.543 25.7757 99.4682 24.0796C98.677 22.8317 97.8313 21.6213 96.9515 20.4546L96.9486 20.4508C94.7523 17.5501 92.2741 14.8797 89.5524 12.4783L89.5495 12.4757C86.5724 9.85719 83.306 7.55768 79.801 5.63537ZM37.5653 74.1371H69.8842C73.1626 74.1371 75.8171 71.4826 75.8171 68.2042V45.9406C75.8171 43.9405 74.814 42.075 73.1443 40.9802L56.9848 30.3561C55.0092 29.0533 52.4464 29.0533 50.4647 30.3561L34.3052 40.9802C32.6355 42.0812 31.6324 43.9405 31.6324 45.9406V68.2042C31.6324 71.4826 34.2869 74.1371 37.5653 74.1371Z" fill="#38A6FA"/>
  <path fill-rule="evenodd" clip-rule="evenodd" d="M64.6738 47.3763C65.7489 48.4509 65.7494 50.1936 64.6748 51.2687L52.4237 63.5259C51.9075 64.0423 51.2074 64.3325 50.4773 64.3326C49.7472 64.3327 49.047 64.0427 48.5307 63.5264L42.7752 57.7709C41.7004 56.696 41.7004 54.9533 42.7752 53.8785C43.8501 52.8036 45.5928 52.8036 46.6677 53.8785L50.4765 57.6873L60.7814 47.3772C61.856 46.3021 63.5987 46.3017 64.6738 47.3763Z" fill="white"/>
</svg>