<svg width="45" height="47" viewBox="0 0 45 47" fill="none" xmlns="http://www.w3.org/2000/svg">
  <path d="M6.04236 46.6489C2.70349 46.6489 0 43.8822 0 40.4654V17.2549C0 15.1703 1.02159 13.2324 2.72218 12.0849L19.1798 1.01837C21.1981 -0.339456 23.8081 -0.339456 25.8202 1.01837L42.2778 12.0913C43.9784 13.2324 45 15.1767 45 17.2612V40.4654C45 43.8822 42.2965 46.6489 38.9576 46.6489H6.04236Z" fill="#38A6FA"/>
  <path fill-rule="evenodd" clip-rule="evenodd" d="M33.6577 18.7577C34.7524 19.878 34.7524 21.6943 33.6577 22.8146L21.1743 35.5896C20.6486 36.1275 19.9357 36.4298 19.1922 36.4298C18.4488 36.4298 17.7358 36.1275 17.2101 35.5896L11.3484 29.5909C10.2537 28.4707 10.2537 26.6543 11.3484 25.5341C12.4431 24.4138 14.2179 24.4138 15.3126 25.5341L19.1922 29.5043L29.6935 18.7577C30.7882 17.6374 32.563 17.6374 33.6577 18.7577Z" fill="white"/>
</svg>