<svg width="90" height="90" viewBox="0 0 90 90" fill="none" xmlns="http://www.w3.org/2000/svg">
<path d="M29.0424 63.6489C25.7035 63.6489 23 60.8822 23 57.4654V34.2549C23 32.1703 24.0216 30.2324 25.7222 29.0849L42.1798 18.0184C44.1981 16.6605 46.8081 16.6605 48.8202 18.0184L65.2778 29.0913C66.9784 30.2324 68 32.1767 68 34.2612V57.4654C68 60.8822 65.2965 63.6489 61.9576 63.6489H29.0424Z" fill="#38A6FA"/>
<path fill-rule="evenodd" clip-rule="evenodd" d="M56.6577 35.7577C57.7524 36.878 57.7524 38.6943 56.6577 39.8146L44.1743 52.5896C43.6486 53.1275 42.9357 53.4298 42.1922 53.4298C41.4488 53.4298 40.7358 53.1275 40.2101 52.5896L34.3484 46.5909C33.2537 45.4707 33.2537 43.6543 34.3484 42.5341C35.4431 41.4138 37.2179 41.4138 38.3126 42.5341L42.1922 46.5043L52.6935 35.7577C53.7882 34.6374 55.563 34.6374 56.6577 35.7577Z" fill="white"/>
<circle cx="45" cy="45" r="43" stroke="#38A6FA" stroke-width="4"/>
</svg>
