<svg width="107" height="107" viewBox="0 0 107 107" fill="none" xmlns="http://www.w3.org/2000/svg">
<path fill-rule="evenodd" clip-rule="evenodd" d="M45.7962 1.97438C46.0572 3.30012 45.1941 4.58645 43.8684 4.84748C32.247 7.13567 22.0977 13.5358 14.9985 22.471C14.158 23.5289 12.6189 23.7052 11.561 22.8646C10.5031 22.0241 10.3269 20.4851 11.1674 19.4271C18.9677 9.6095 30.1279 2.56585 42.9231 0.0465512C44.2488 -0.214479 45.5352 0.64864 45.7962 1.97438ZM53.5 15.5666C32.5801 15.5666 15.6212 32.5255 15.6212 53.4454C15.6212 74.3652 32.5801 91.3242 53.5 91.3242C74.4199 91.3242 91.3788 74.3652 91.3788 53.4454C91.3788 32.5255 74.4199 15.5666 53.5 15.5666ZM10.7281 53.4454C10.7281 51.3051 10.8853 49.2015 11.1888 47.1455H2.44655C1.09536 47.1455 0 46.0502 0 44.699C0 43.3478 1.09536 42.2524 2.44655 42.2524H12.2076C17.1274 24.0589 33.7505 10.6735 53.5 10.6735C73.2495 10.6735 89.8727 24.0589 94.7924 42.2524H104.553C105.905 42.2524 107 43.3478 107 44.699C107 46.0502 105.905 47.1455 104.553 47.1455H95.8111C96.1146 49.2015 96.2719 51.3051 96.2719 53.4454C96.2719 55.5857 96.1146 57.6893 95.8111 59.7453H104.553C105.905 59.7453 107 60.8407 107 62.1919C107 63.5431 105.905 64.6384 104.553 64.6384H94.7924C89.8726 82.832 73.2495 96.2173 53.5 96.2173C33.7505 96.2173 17.1274 82.832 12.2076 64.6384H2.44655C1.09536 64.6384 0 63.5431 0 62.1919C0 60.8407 1.09536 59.7453 2.44655 59.7453H11.1889C10.8854 57.6893 10.7281 55.5857 10.7281 53.4454ZM8.31557 72.2606C7.7825 71.019 6.34385 70.4446 5.10225 70.9777C3.86066 71.5107 3.28628 72.9494 3.81935 74.191C5.86379 78.9528 8.57382 83.36 11.8267 87.298C12.6872 88.3397 14.2293 88.4867 15.271 87.6262C16.3128 86.7657 16.4597 85.2236 15.5992 84.1818C12.6378 80.5967 10.1734 76.5877 8.31557 72.2606ZM29.1059 98.4217C29.6855 97.2011 31.1448 96.6816 32.3654 97.2612C38.743 100.29 45.8778 101.991 53.4144 101.991C56.0267 101.991 58.5855 101.787 61.086 101.397C62.421 101.188 63.6723 102.101 63.8808 103.436C64.0893 104.771 63.1761 106.023 61.8411 106.231C59.0937 106.66 56.2824 106.884 53.4144 106.884C45.134 106.884 37.2836 105.014 30.2664 101.681C29.0458 101.102 28.5262 99.6423 29.1059 98.4217ZM103.19 73.7472C103.711 72.5005 103.123 71.0675 101.876 70.5465C100.629 70.0254 99.1963 70.6137 98.6752 71.8604C96.1243 77.964 92.3727 83.4463 87.7113 88.0027C86.7451 88.9473 86.7275 90.4962 87.672 91.4625C88.6165 92.4287 90.1655 92.4464 91.1317 91.5018C96.2565 86.4923 100.383 80.4635 103.19 73.7472ZM79.301 5.63537C78.1163 4.98562 76.6292 5.41929 75.9794 6.60401C75.3297 7.78872 75.7634 9.27585 76.9481 9.9256C80.1338 11.6728 83.1056 13.7644 85.8164 16.1486C88.2925 18.3335 90.5473 20.7631 92.546 23.4024C93.3539 24.4738 94.1225 25.5749 94.8356 26.6996C95.8154 28.2452 96.7128 29.8479 97.5164 31.4957C98.1086 32.7102 99.5732 33.2146 100.788 32.6224C102.002 32.0301 102.507 30.5655 101.914 29.351C101.03 27.537 100.043 25.7757 98.9682 24.0796C98.177 22.8318 97.3313 21.6213 96.4515 20.4546L96.4486 20.4508C94.2523 17.5501 91.774 14.8797 89.0524 12.4783L89.0495 12.4757C86.0724 9.85719 82.806 7.55768 79.301 5.63537ZM37.0653 74.1371H69.3842C72.6626 74.1371 75.3171 71.4826 75.3171 68.2042V45.9406C75.3171 43.9405 74.314 42.075 72.6443 40.9802L56.4848 30.3561C54.5092 29.0533 51.9464 29.0533 49.9647 30.3561L33.8052 40.9802C32.1355 42.0812 31.1324 43.9405 31.1324 45.9406V68.2042C31.1324 71.4826 33.7869 74.1371 37.0653 74.1371Z" fill="#38A6FA"/>
<path fill-rule="evenodd" clip-rule="evenodd" d="M64.1738 47.3763C65.2489 48.4509 65.2494 50.1936 64.1748 51.2687L51.9237 63.5259C51.4075 64.0423 50.7074 64.3325 49.9773 64.3326C49.2472 64.3327 48.547 64.0427 48.0307 63.5264L42.2752 57.7709C41.2004 56.696 41.2004 54.9533 42.2752 53.8785C43.3501 52.8036 45.0928 52.8036 46.1677 53.8785L49.9765 57.6873L60.2814 47.3772C61.356 46.3021 63.0987 46.3017 64.1738 47.3763Z" fill="white"/>
</svg>